<?xml version="1.0" standalone="no"?>
<!DOCTYPE svg PUBLIC "-//W3C//DTD SVG 20010904//EN"
 "http://www.w3.org/TR/2001/REC-SVG-20010904/DTD/svg10.dtd">
<svg version="1.0" xmlns="http://www.w3.org/2000/svg"
 width="774.000000pt" height="355.000000pt" viewBox="0 0 774.000000 355.000000"
 preserveAspectRatio="xMidYMid meet">

<g transform="translate(0.000000,355.000000) scale(0.100000,-0.100000)"
fill="#000000" stroke="none">
<path fill="#FFFFFF" d="M5757 2835 c-648 -205 -1184 -378 -1190 -384 -8 -8 -13 -67 -15 -171
-3 -144 -5 -160 -21 -160 -39 0 -41 -16 -41 -275 0 -182 3 -254 12 -263 17
-17 2729 -17 2746 0 9 9 12 80 12 260 0 236 -1 249 -20 268 -12 12 -25 18 -30
15 -6 -4 -11 55 -12 147 l-3 153 -72 3 -73 3 0 -346 0 -345 -1175 0 -1175 0 0
313 0 312 1006 355 c554 195 1010 356 1014 358 11 4 70 -242 60 -248 -5 -3 17
-109 50 -235 33 -127 60 -231 60 -232 0 -2 -486 -3 -1080 -3 l-1080 0 0 -185
0 -185 1145 0 1145 0 0 185 0 185 -32 0 -33 0 -59 233 c-32 127 -64 237 -72
243 -11 9 -74 217 -74 245 0 4 50 24 110 45 95 33 110 41 108 59 -2 11 -10 21
-18 22 -8 1 -545 -166 -1193 -372z"/>
<path fill="#FFFFFF" d="M3298 3043 c-69 -69 -84 -92 -49 -73 11 5 24 10 30 10 8 0 11 -104
11 -333 0 -321 -1 -335 -20 -352 -11 -10 -20 -22 -20 -27 0 -4 37 -8 82 -8
l81 0 -21 23 c-21 23 -22 28 -24 425 l-3 403 -67 -68z"/>
<path fill="#FFFFFF" d="M3628 3043 c-69 -69 -84 -92 -49 -73 11 5 24 10 30 10 8 0 11 -104
11 -333 0 -321 -1 -335 -20 -352 -11 -10 -20 -22 -20 -27 0 -4 37 -8 82 -8
l81 0 -21 23 c-21 23 -22 28 -24 425 l-3 403 -67 -68z"/>
<path fill="#FFFFFF" d="M442 3089 c-98 -19 -209 -86 -236 -144 -33 -68 -9 -145 44 -145 28 0
60 35 60 64 0 31 -16 42 -23 16 -8 -31 -45 -26 -53 7 -20 80 98 161 248 170
122 8 188 -13 253 -80 56 -58 75 -105 75 -188 0 -64 -28 -130 -73 -177 -50
-52 -65 -57 -92 -32 -29 27 -100 36 -135 18 -19 -11 -25 -21 -25 -48 0 -47 31
-63 107 -56 l56 5 17 -77 c27 -126 44 -168 88 -218 70 -80 189 -118 245 -78
30 20 27 68 -3 72 -17 2 -21 -3 -20 -25 0 -25 -4 -28 -33 -31 -48 -5 -100 52
-141 155 -18 43 -48 112 -67 153 -20 41 -31 76 -26 78 29 9 104 67 127 97 70
93 90 217 47 301 -33 66 -113 130 -189 154 -69 21 -172 25 -251 9z m159 -519
c27 -15 24 -38 -6 -46 -38 -9 -75 3 -75 25 0 29 44 40 81 21z"/>
<path fill="#FFFFFF" d="M3962 3028 c-7 -7 -12 -24 -12 -38 0 -53 57 -69 86 -25 15 23 15 27
0 50 -18 27 -54 33 -74 13z"/>
<path fill="#FFFFFF" d="M440 2996 c-6 -8 -35 -30 -63 -47 -29 -18 -53 -34 -55 -35 -2 -1 6
-12 17 -23 20 -20 21 -31 21 -298 l0 -277 -27 -28 -27 -28 89 0 88 0 -21 23
c-22 23 -22 29 -22 340 0 255 3 325 14 352 15 36 8 46 -14 21z"/>
<path fill="#FFFFFF" d="M3975 2814 c-27 -19 -54 -36 -60 -38 -5 -3 0 -13 13 -22 22 -16 22
-20 22 -229 0 -199 -1 -213 -20 -230 -11 -10 -20 -22 -20 -27 0 -4 37 -8 82
-8 l81 0 -21 23 c-21 22 -22 32 -24 294 l-3 270 -50 -33z"/>
<path fill="#FFFFFF" d="M1238 2824 c-64 -20 -149 -99 -178 -166 -63 -146 6 -326 149 -392 34
-15 66 -21 126 -21 70 0 87 4 134 30 112 62 169 165 159 289 -16 195 -201 318
-390 260z m169 -62 c52 -27 125 -100 148 -149 74 -154 -24 -323 -187 -323
-141 0 -282 147 -282 294 1 89 42 154 124 191 47 21 142 14 197 -13z"/>
<path fill="#FFFFFF" d="M1748 2813 l-27 -27 39 -36 40 -37 0 -200 c0 -187 -1 -201 -20 -218
-11 -10 -20 -22 -20 -27 0 -4 36 -8 80 -8 80 0 98 9 60 30 -19 10 -20 21 -20
212 l0 200 39 39 c62 63 130 47 172 -38 21 -42 24 -62 24 -158 -1 -110 -15
-195 -42 -248 -16 -33 -10 -48 11 -26 28 27 86 158 102 226 15 64 14 130 -3
215 -4 23 0 30 28 47 53 32 104 28 144 -12 69 -69 74 -207 12 -340 -20 -42
-45 -90 -56 -106 -12 -16 -21 -32 -21 -35 0 -3 27 -6 59 -6 33 0 71 -4 85 -10
26 -9 26 -9 26 36 0 45 0 45 -22 30 -12 -9 -37 -16 -55 -16 l-33 0 34 45 c82
107 120 239 97 341 -32 142 -179 200 -279 109 l-37 -33 -37 33 c-43 40 -95 52
-148 36 -34 -10 -88 -58 -104 -93 -4 -9 -7 -10 -12 -1 -10 22 -75 103 -82 103
-4 0 -20 -12 -34 -27z"/>
<path fill="#FFFFFF" d="M2835 2827 c-58 -23 -101 -56 -134 -102 -80 -111 -81 -254 -3 -367
l31 -45 -31 -59 c-23 -44 -29 -67 -25 -86 8 -31 38 -44 67 -28 26 14 26 40 0
40 -11 0 -23 6 -26 14 -5 13 31 96 42 96 2 0 24 -10 47 -21 52 -27 151 -36
203 -19 59 19 123 68 141 106 22 46 10 54 -24 14 -60 -72 -169 -90 -261 -44
-29 14 -52 30 -52 35 0 24 199 298 273 377 l50 52 -32 0 c-17 0 -51 10 -74 21
-49 26 -149 34 -192 16z m121 -43 c42 -20 51 -51 28 -95 -12 -24 -155 -236
-201 -298 -6 -9 -36 26 -59 71 -18 36 -24 63 -24 113 0 74 14 114 55 164 51
59 132 78 201 45z"/>
<path fill="#FFFFFF" d="M4730 1831 l0 -61 38 0 37 0 -2 58 -1 57 -36 3 -36 3 0 -60z"/>
<path fill="#FFFFFF" d="M4840 1830 l0 -60 35 0 35 0 0 60 0 60 -35 0 -35 0 0 -60z"/>
<path fill="#FFFFFF" d="M4947 1884 c-4 -4 -7 -31 -7 -61 l0 -53 38 0 37 0 -2 58 c-1 55 -2
57 -30 60 -16 2 -32 0 -36 -4z"/>
<path fill="#FFFFFF" d="M5050 1830 l0 -60 35 0 35 0 0 60 0 60 -35 0 -35 0 0 -60z"/>
<path fill="#FFFFFF" d="M5160 1886 c-3 -2 -3 -29 -2 -60 l4 -56 34 0 35 0 -3 58 c-3 55 -4
57 -33 60 -17 2 -33 1 -35 -2z"/>
<path fill="#FFFFFF" d="M5260 1830 l0 -60 35 0 35 0 0 60 0 60 -35 0 -35 0 0 -60z"/>
<path fill="#FFFFFF" d="M5370 1888 c-1 -2 -2 -29 -5 -60 l-3 -58 39 0 40 0 -3 58 c-3 56 -3
57 -35 60 -18 2 -33 2 -33 0z"/>
<path fill="#FFFFFF" d="M5470 1830 l0 -60 35 0 35 0 0 60 0 60 -35 0 -35 0 0 -60z"/>
<path fill="#FFFFFF" d="M5580 1830 l0 -60 35 0 35 0 0 60 0 60 -35 0 -35 0 0 -60z"/>
<path fill="#FFFFFF" d="M5680 1830 l0 -60 35 0 35 0 0 60 0 60 -35 0 -35 0 0 -60z"/>
<path fill="#FFFFFF" d="M5790 1830 l0 -60 35 0 35 0 0 60 0 60 -35 0 -35 0 0 -60z"/>
<path fill="#FFFFFF" d="M5890 1830 l0 -60 35 0 35 0 0 60 0 60 -35 0 -35 0 0 -60z"/>
<path fill="#FFFFFF" d="M6000 1830 l0 -60 35 0 35 0 0 60 0 60 -35 0 -35 0 0 -60z"/>
<path fill="#FFFFFF" d="M6100 1830 l0 -60 35 0 35 0 0 60 0 60 -35 0 -35 0 0 -60z"/>
<path fill="#FFFFFF" d="M6210 1830 l0 -60 35 0 35 0 0 60 0 60 -35 0 -35 0 0 -60z"/>
<path fill="#FFFFFF" d="M6310 1830 l0 -60 35 0 35 0 0 60 0 60 -35 0 -35 0 0 -60z"/>
<path fill="#FFFFFF" d="M6420 1830 l0 -60 35 0 35 0 0 60 0 60 -35 0 -35 0 0 -60z"/>
<path fill="#FFFFFF" d="M6520 1830 l0 -60 35 0 35 0 0 60 0 60 -35 0 -35 0 0 -60z"/>
<path fill="#FFFFFF" d="M6630 1830 l0 -60 35 0 35 0 0 60 0 60 -35 0 -35 0 0 -60z"/>
<path fill="#FFFFFF" d="M6730 1830 l0 -60 35 0 35 0 0 60 0 60 -35 0 -35 0 0 -60z"/>
<path fill="#FFFFFF" d="M6840 1830 l0 -60 35 0 35 0 0 60 0 60 -35 0 -35 0 0 -60z"/>
<path fill="#FFFFFF" d="M6940 1830 l0 -60 35 0 35 0 0 60 0 60 -35 0 -35 0 0 -60z"/>
<path fill="#FFFFFF" d="M625 1672 c-33 -10 -89 -31 -124 -46 -36 -16 -76 -26 -95 -24 -27 3
-31 6 -29 31 2 29 -22 38 -45 15 -35 -35 4 -78 71 -78 l47 0 0 -402 c0 -418
-2 -437 -43 -462 -21 -14 -53 4 -51 28 1 10 -3 15 -10 13 -6 -2 -11 -17 -11
-33 0 -54 83 -59 130 -8 59 64 60 68 65 469 3 254 9 376 17 390 44 78 155 116
236 81 83 -36 129 -128 135 -272 5 -119 -13 -203 -60 -281 -39 -65 -79 -94
-134 -101 -36 -4 -46 0 -68 21 -31 31 -33 51 -7 74 25 21 18 33 -19 33 -55 0
-81 -79 -40 -120 65 -65 188 -48 280 39 170 159 198 428 59 569 -74 76 -187
99 -304 64z"/>
<path fill="#FFFFFF" d="M1222 1618 c-15 -15 -15 -61 0 -76 20 -20 56 -14 74 13 15 23 15 27
0 50 -18 27 -54 33 -74 13z"/>
<path fill="#FFFFFF" d="M4667 1248 c7 -161 14 -322 15 -358 3 -65 3 -65 35 -68 31 -3 31 -3
37 50 5 50 26 566 26 636 l0 32 -62 0 -63 0 12 -292z"/>
<path fill="#FFFFFF" d="M5824 1408 c4 -73 9 -179 12 -234 l6 -102 29 -4 c17 -3 31 -2 33 1 2
3 7 78 10 166 4 88 9 193 12 233 l6 72 -57 0 -57 0 6 -132z"/>
<path fill="#FFFFFF" d="M6971 1448 c0 -51 6 -212 12 -358 l12 -265 32 -3 c29 -3 32 0 37 30
5 31 26 570 26 651 l0 37 -60 0 -60 0 1 -92z"/>
<path fill="#FFFFFF" d="M1235 1404 c-27 -19 -54 -36 -60 -38 -5 -3 0 -13 13 -22 22 -16 22
-20 22 -229 0 -199 -1 -213 -20 -230 -11 -10 -20 -22 -20 -27 0 -4 37 -8 82
-8 l81 0 -21 23 c-21 22 -22 32 -24 294 l-3 270 -50 -33z"/>
<path fill="#FFFFFF" d="M1587 1416 c-71 -26 -95 -65 -76 -123 17 -52 71 -70 117 -37 24 17
30 62 10 82 -20 20 -34 14 -33 -15 0 -21 -5 -29 -21 -31 -52 -7 -56 66 -4 93
86 44 203 -12 271 -129 34 -61 39 -88 10 -62 -27 25 -88 45 -137 46 -90 1
-188 -60 -220 -136 -50 -120 35 -254 172 -270 75 -9 127 10 186 66 l50 49 -4
-50 -5 -49 53 0 c30 0 54 2 54 5 0 3 -6 16 -14 28 -8 12 -19 65 -26 117 -23
186 -49 264 -111 335 -70 79 -185 114 -272 81z m214 -227 c132 -45 143 -222
16 -279 -76 -35 -146 -24 -205 33 -126 121 15 304 189 246z"/>
<path fill="#FFFFFF" d="M2128 1404 l-26 -27 39 -37 39 -37 0 -198 c0 -190 -1 -200 -22 -222
-12 -13 -19 -25 -16 -28 3 -3 41 -5 84 -3 l79 3 -22 20 c-22 19 -23 25 -23
219 l0 199 35 33 c38 36 87 50 137 40 50 -10 78 -34 104 -89 44 -96 25 -235
-51 -360 -19 -32 -35 -60 -35 -62 0 -2 30 -5 68 -7 37 -2 75 -8 85 -12 15 -7
17 -2 17 38 0 47 0 47 -22 32 -12 -9 -37 -16 -55 -16 l-32 0 34 50 c55 82 78
153 79 250 1 69 -3 92 -21 125 -38 71 -105 115 -175 115 -45 0 -111 -35 -149
-78 -21 -23 -34 -32 -37 -24 -6 19 -65 95 -77 99 -6 2 -22 -9 -37 -23z"/>
<path fill="#FFFFFF" d="M2968 1414 c-64 -20 -149 -99 -178 -166 -63 -146 6 -326 149 -392 34
-15 66 -21 126 -21 70 0 87 4 134 30 112 62 169 165 159 289 -16 195 -201 318
-390 260z m169 -62 c52 -27 125 -100 148 -149 74 -154 -24 -323 -187 -323
-141 0 -282 147 -282 294 1 89 42 154 124 191 47 21 142 14 197 -13z"/>
<path fill="#FFFFFF" d="M3625 1418 c-39 -14 -92 -53 -106 -80 -15 -27 -14 -91 2 -116 19 -31
60 -50 150 -71 116 -27 156 -46 179 -84 57 -94 -22 -195 -160 -205 -110 -8
-200 39 -200 104 0 28 6 38 33 54 36 22 68 25 98 10 23 -13 26 -58 4 -66 -21
-8 -9 -24 18 -24 39 0 67 27 67 65 0 104 -186 116 -237 15 -17 -34 -16 -91 3
-118 41 -59 183 -88 285 -58 68 19 143 81 159 132 18 54 7 120 -25 154 -34 36
-77 54 -199 85 -109 28 -136 44 -136 84 0 39 24 67 75 86 86 33 208 4 179 -43
-7 -10 -24 -17 -40 -17 -22 0 -30 5 -32 23 -4 27 -14 28 -36 3 -56 -62 76
-112 143 -55 36 30 39 51 11 86 -33 42 -161 62 -235 36z"/>
</g>
</svg>
